#!OML:ASF X:\für Bonn\!DataBase\2005_08_11_Bastian_Final\c3d\Bastian.ASF
:FULLY-SPECIFIED
:DEGREES
223
root 3.41875 16.906 -6.69491 539.351 37.6405 -175.751
lowerback 24.8965 -7.89054 6.04827
upperback 16.5355 -5.47602 5.20231
thorax 4.66975 -1.15888 3.56382
lowerneck -22.2547 -13.2191 -21.1085
upperneck -3.77243 -13.7245 32.4742
head 7.08424 -4.62687 12.8702
rclavicle -2.94201e-014 1.59028e-015
rhumerus -25.4604 10.5354 -81.055
rradius 39.089
rwrist 1.30752
rhand -13.136 4.58268
rfingers 7.12502
rthumb 12.9621 -24.9947
lclavicle -2.94201e-014 1.59028e-015
lhumerus -1.31326 -30.6832 -269.592
lradius 30.8505
lwrist -346.466
lhand -17.1525 -7.67043
lfingers 7.12502
lthumb 9.08822 22.1138
rfemur -31.6525 -8.49903 24.1984
rtibia 53.8423
rfoot -7.75227 1.4848
rtoes -6.07178
lfemur 11.7669 -1.43313 -9.1344
ltibia 49.8996
lfoot 0.697333 -10.7249
ltoes -35.7615
224
root 3.52096 16.9375 -6.75044 539.427 37.6189 -175.752
lowerback 25.0455 -7.8925 6.20513
upperback 16.5218 -5.41256 5.23584
thorax 4.57219 -1.11131 3.51227
lowerneck -22.224 -13.182 -20.9664
upperneck -3.87308 -13.6679 32.2877
head 6.99349 -4.61369 12.7727
rclavicle -1.18476e-013 2.8625e-014
rhumerus -25.1838 10.3776 -81.0256
rradius 39.6103
rwrist 1.62989
rhand -13.3041 4.68465
rfingers 7.12502
rthumb 12.8 -24.9029
lclavicle -1.18476e-013 2.8625e-014
lhumerus -1.55424 -31.2545 -269.672
lradius 30.605
lwrist -345.759
lhand -17.3052 -7.52727
lfingers 7.12502
lthumb 8.94079 22.2633
rfemur -31.0575 -8.49214 24.3733
rtibia 53.4327
rfoot -8.15152 1.30969
rtoes -6.26203
lfemur 10.7242 -1.36344 -9.00739
ltibia 51.6688
lfoot 0.910918 -10.3766
ltoes -36.2582
225
root 3.62053 16.9681 -6.80457 539.473 37.6043 -175.753
lowerback 25.1887 -7.886 6.31821
upperback 16.5376 -5.34213 5.27374
thorax 4.51689 -1.06097 3.48774
lowerneck -22.1584 -13.1159 -20.77
upperneck -4.00895 -13.5769 32.0638
head 6.86816 -4.58975 12.6569
rclavicle 1.06549e-013 -5.32743e-014
rhumerus -24.864 10.2313 -80.997
rradius 40.1325
rwrist 1.9722
rhand -13.4802 4.76219
rfingers 7.12502
rthumb 12.6302 -24.836
lclavicle 1.06549e-013 -5.32743e-014
lhumerus -1.74957 -31.4644 -269.67
lradius 30.2346
lwrist -345.347
lhand -17.383 -7.50665
lfingers 7.12502
lthumb 8.86578 22.2871
rfemur -30.4268 -8.4661 24.5348
rtibia 53.0059
rfoot -8.51553 1.1464
rtoes -6.41715
lfemur 9.67136 -1.32388 -8.90951
ltibia 53.4484
lfoot 0.857229 -10.0592
ltoes -36.6563
226
root 3.71805 16.9987 -6.8585 539.485 37.6004 -175.786
lowerback 25.3123 -7.86851 6.39342
upperback 16.5608 -5.2699 5.29593
thorax 4.48112 -1.01235 3.46448
lowerneck -22.0622 -13.0369 -20.5366
upperneck -4.12674 -13.4878 31.8253
head 6.73996 -4.57042 12.529
rclavicle -4.69132e-014 5.00937e-014
rhumerus -24.525 10.0556 -80.981
rradius 40.6309
rwrist 2.32796
rhand -13.6283 4.88086
rfingers 7.12502
rthumb 12.4875 -24.726
lclavicle -4.69132e-014 5.00937e-014
lhumerus -1.93068 -31.222 -269.571
lradius 29.7131
lwrist -345.39
lhand -17.3732 -7.56103
lfingers 7.12502
lthumb 8.87519 22.2323
rfemur -29.8017 -8.4339 24.6585
rtibia 52.6128
rfoot -8.87642 0.962395
rtoes -6.5661
lfemur 8.58447 -1.3221 -8.8926
ltibia 55.2589
lfoot 0.58814 -9.75348
ltoes -36.5999
227
root 3.813 17.0293 -6.91144 539.509 37.5963 -175.787
lowerback 25.4373 -7.84193 6.46701
upperback 16.5817 -5.18461 5.33823
thorax 4.44432 -0.958185 3.46142
lowerneck -21.8924 -12.9359 -20.291
upperneck -4.31524 -13.3624 31.5452
head 6.56322 -4.54427 12.3896
rclavicle 3.57812e-014 -1.04958e-013
rhumerus -24.1882 9.93806 -80.9418
rradius 41.1628
rwrist 2.6721
rhand -13.7975 4.95733
rfingers 7.12502
rthumb 12.3244 -24.6595
lclavicle 3.57812e-014 -1.04958e-013
lhumerus -2.13043 -30.7581 -269.406
lradius 29.1741
lwrist -345.525
lhand -17.2924 -7.6644
lfingers 7.12502
lthumb 8.95321 22.1256
rfemur -29.1777 -8.39404 24.8061
rtibia 52.2191
rfoot -9.26443 0.792847
rtoes -6.69438
lfemur 7.47292 -1.34213 -8.87467
ltibia 57.0623
lfoot 0.226046 -9.47685
ltoes -36.026
228
root 3.9054 17.0567 -6.96392 539.536 37.6031 -175.761
lowerback 25.5294 -7.81014 6.57873
upperback 16.6071 -5.09207 5.355
thorax 4.42196 -0.896061 3.40513
lowerneck -21.6383 -12.8242 -20.0059
upperneck -4.52692 -13.2457 31.3094
head 6.37394 -4.52831 12.2604
rclavicle -1.44715e-013 4.77083e-014
rhumerus -23.8752 9.73936 -80.9587
rradius 41.7154
rwrist 3.01817
rhand -13.9493 5.00749
rfingers 7.12502
rthumb 12.178 -24.618
lclavicle -1.44715e-013 4.77083e-014
lhumerus -2.35938 -30.3724 -269.284
lradius 28.6494
lwrist -345.62
lhand -17.2785 -7.7315
lfingers 7.12502
lthumb 8.96658 22.058
rfemur -28.557 -8.35667 24.9684
rtibia 51.8359
rfoot -9.64745 0.637587
rtoes -6.80846
lfemur 6.35876 -1.31758 -8.83574
ltibia 58.8453
lfoot -0.15193 -9.18791
ltoes -35.0874
229
root 3.99559 17.0823 -7.01483 539.516 37.6096 -175.755
lowerback 25.6402 -7.77666 6.61291
upperback 16.659 -5.00332 5.39433
thorax 4.4318 -0.839967 3.41875
lowerneck -21.5341 -12.7607 -19.8141
upperneck -4.66853 -13.1646 31.0573
head 6.2436 -4.5149 12.1363
rclavicle -7.15625e-015 3.10104e-014
rhumerus -23.4908 9.61869 -80.9173
rradius 42.2473
rwrist 3.3441
rhand -14.0425 5.11977
rfingers 7.12502
rthumb 12.0881 -24.5111
lclavicle -7.15625e-015 3.10104e-014
lhumerus -2.55151 -29.8613 -269.135
lradius 28.1292
lwrist -345.696
lhand -17.2327 -7.7583
lfingers 7.12502
lthumb 9.01076 22.0292
rfemur -27.9251 -8.33744 25.1048
rtibia 51.4672
rfoot -10.0179 0.492053
rtoes -6.92805
lfemur 5.23293 -1.23985 -8.78947
ltibia 60.6117
lfoot -0.565116 -8.95566
ltoes -34.0628
230
root 4.0847 17.1068 -7.06414 539.501 37.6235 -175.726
lowerback 25.7443 -7.72611 6.65971
upperback 16.7143 -4.89182 5.42178
thorax 4.44578 -0.770561 3.40657
lowerneck -21.5229 -12.7586 -19.6645
upperneck -4.74694 -13.1652 30.8546
head 6.17821 -4.52798 12.0236
rclavicle 2.14687e-014 1.4233e-013
rhumerus -23.1143 9.48584 -80.9262
rradius 42.8075
rwrist 3.63372
rhand -14.1728 5.14209
rfingers 7.12502
rthumb 11.9625 -24.4961
lclavicle 2.14687e-014 1.4233e-013
lhumerus -2.78942 -29.4865 -269.03
lradius 27.703
lwrist -345.595
lhand -17.2585 -7.70216
lfingers 7.12502
lthumb 8.9859 22.0865
rfemur -27.2985 -8.28387 25.2567
rtibia 51.1094
rfoot -10.3521 0.336789
rtoes -6.84603
lfemur 4.08943 -1.10283 -8.70781
ltibia 62.3475
lfoot -0.987034 -8.69456
ltoes -33.4999
231
root 4.17159 17.1303 -7.11179 539.479 37.6588 -175.693
lowerback 25.8594 -7.67372 6.67792
upperback 16.7704 -4.78312 5.44989
thorax 4.45836 -0.705362 3.41188
lowerneck -21.5421 -12.7714 -19.5872
upperneck -4.81163 -13.1702 30.6822
head 6.13239 -4.53842 11.9367
rclavicle -4.6118e-014 -1.70955e-013
rhumerus -22.7152 9.41796 -80.9243
rradius 43.3783
rwrist 3.90391
rhand -14.2673 5.17045
rfingers 7.12502
rthumb 11.8714 -24.473
lclavicle -4.6118e-014 -1.70955e-013
lhumerus -3.03846 -29.1119 -268.94
lradius 27.2897
lwrist -345.332
lhand -17.2768 -7.62645
lfingers 7.12502
lthumb 8.9682 22.1629
rfemur -26.6823 -8.23232 25.4111
rtibia 50.7615
rfoot -10.673 0.195831
rtoes -6.9622
lfemur 2.9116 -0.918265 -8.61801
ltibia 64.0552
lfoot -1.35295 -8.46941
ltoes -33.2926
232
root 4.25712 17.1528 -7.15806 539.466 37.667 -175.627
lowerback 25.9784 -7.62151 6.7226
upperback 16.8183 -4.66801 5.48206
thorax 4.45775 -0.635028 3.40568
lowerneck -21.4894 -12.7692 -19.4886
upperneck -4.88862 -13.1701 30.5091
head 6.0689 -4.55372 11.8475
rclavicle -8.18993e-014 2.3059e-014
rhumerus -22.3166 9.33169 -80.9242
rradius 43.9453
rwrist 4.112
rhand -14.3176 5.20533
rfingers 7.12502
rthumb 11.8228 -24.4409
lclavicle -8.18993e-014 2.3059e-014
lhumerus -3.34703 -28.7925 -268.851
lradius 26.9581
lwrist -344.969
lhand -17.2983 -7.48623
lfingers 7.12502
lthumb 8.94753 22.304
rfemur -26.0567 -8.20964 25.5969
rtibia 50.4107
rfoot -10.9653 0.0469853
rtoes -7.07178
lfemur 1.70362 -0.745671 -8.49927
ltibia 65.7203
lfoot -1.62466 -8.29117
ltoes -33.4831
